# xmcd
#
# Track frame offsets:
#	150
#	13182
#	24983
#	38134
#	51197
#	63737
#	73685
#	89810
#	100966
#	113918
#	126739
#	140201
#	152835
#	165977
#	177578
#	189750
#
# Disc length: 2712 seconds
# Revision: 0
# Processed by: cddbd v1.5.2PL0 Copyright (c) Steve Scherf et al.
# Submitted via: dBpowerAMP V12.0
#
DISCID=ec0a9610
DTITLE=The Carter Family - The Original Carter Family From 1936 Radio Transcripts
DYEAR=1998
DGENRE=Country
TTITLE0=No Depression in Heaven
TTITLE1=Jealous Hearted me
TTITLE2=I'm Working on a Building
TTITLE3=My Dixie Darling
TTITLE4=Kissing is a Crime
TTITLE5=Little Darling Pal of Mine
TTITLE6=Cannonball Blues
TTITLE7=Are You Lonesome Tonight
TTITLE8=My Native Home
TTITLE9=A Distant Land to Roam
TTITLE10=East Virginia Blues (no.2)
TTITLE11=Keep on The Sunnyside
TTITLE12=Single Girl, Married Girl
TTITLE13=Lonesone Valley
TTITLE14=Happy or Lonesome
TTITLE15=Just Another Broken Heart
EXTD=
EXTT0=
EXTT1=
EXTT2=
EXTT3=
EXTT4=
EXTT5=
EXTT6=
EXTT7=
EXTT8=
EXTT9=
EXTT10=
EXTT11=
EXTT12=
EXTT13=
EXTT14=
EXTT15=
PLAYORDER=
